<?xml version="1.0" encoding="UTF-8"?>
<svg id="Layer_1" data-name="Layer 1" xmlns="http://www.w3.org/2000/svg" viewBox="0 0 1527.63 1017.81">
  <defs>
    <style>
      .cls-1, .cls-2, .cls-3, .cls-4, .cls-5, .cls-6, .cls-7, .cls-8, .cls-9, .cls-10, .cls-11, .cls-12, .cls-13, .cls-14, .cls-15, .cls-16, .cls-17, .cls-18, .cls-19, .cls-20, .cls-21, .cls-22 {
        fill: #231f20;
      }

      .cls-1, .cls-3, .cls-7, .cls-9, .cls-23, .cls-24, .cls-25, .cls-26, .cls-27, .cls-15, .cls-28, .cls-29, .cls-30, .cls-31, .cls-32, .cls-33, .cls-16, .cls-20, .cls-34, .cls-21 {
        font-weight: 500;
      }

      .cls-1, .cls-3, .cls-7, .cls-25, .cls-26, .cls-27, .cls-15, .cls-28, .cls-29, .cls-30, .cls-31, .cls-32, .cls-33, .cls-20, .cls-34, .cls-21 {
        font-family: HelveticaNeue-Medium, 'Helvetica Neue';
      }

      .cls-1, .cls-12, .cls-19, .cls-35 {
        font-size: 22px;
      }

      .cls-36, .cls-37, .cls-38, .cls-39, .cls-40, .cls-41, .cls-42, .cls-43, .cls-44, .cls-45, .cls-46 {
        fill: none;
      }

      .cls-36, .cls-37, .cls-38, .cls-39, .cls-40, .cls-41, .cls-42, .cls-43, .cls-44, .cls-45, .cls-46, .cls-47, .cls-48, .cls-49 {
        stroke-miterlimit: 10;
      }

      .cls-36, .cls-43, .cls-47, .cls-48, .cls-49 {
        stroke: #231f20;
      }

      .cls-36, .cls-47, .cls-48, .cls-49 {
        stroke-width: 3px;
      }

      .cls-37 {
        stroke: #d1d3d4;
      }

      .cls-37, .cls-38, .cls-39, .cls-40, .cls-41 {
        stroke-width: 6px;
      }

      .cls-38 {
        stroke: #398e84;
      }

      .cls-39, .cls-46 {
        stroke: #398d84;
      }

      .cls-40, .cls-45 {
        stroke: #e67f3a;
      }

      .cls-41 {
        stroke: #e67f39;
      }

      .cls-2, .cls-3, .cls-21 {
        font-size: 25.25px;
      }

      .cls-2, .cls-50, .cls-4, .cls-51, .cls-23, .cls-24, .cls-12, .cls-52, .cls-17, .cls-53, .cls-22, .cls-54 {
        font-style: italic;
      }

      .cls-2, .cls-50, .cls-4, .cls-51, .cls-12, .cls-52, .cls-17, .cls-53, .cls-22, .cls-54 {
        font-family: HelveticaNeue-Italic, 'Helvetica Neue';
      }

      .cls-50, .cls-4, .cls-51, .cls-27, .cls-15, .cls-28 {
        font-size: 21.72px;
      }

      .cls-50, .cls-24, .cls-26, .cls-28, .cls-32, .cls-33, .cls-53 {
        fill: #398d84;
      }

      .cls-51, .cls-23, .cls-25, .cls-27, .cls-29, .cls-54 {
        fill: #e67f3a;
      }

      .cls-5 {
        font-family: HelveticaNeue-Bold, 'Helvetica Neue';
        font-size: 49px;
        font-weight: 700;
      }

      .cls-7 {
        letter-spacing: 0em;
      }

      .cls-7, .cls-17, .cls-20 {
        font-size: 26.25px;
      }

      .cls-8 {
        font-size: 25.18px;
      }

      .cls-8, .cls-10, .cls-11, .cls-13, .cls-55, .cls-18, .cls-19, .cls-35, .cls-56 {
        font-family: HelveticaNeue, 'Helvetica Neue';
      }

      .cls-57, .cls-13, .cls-33 {
        letter-spacing: -.02em;
      }

      .cls-58 {
        letter-spacing: -.02em;
      }

      .cls-9 {
        font-size: 16px;
      }

      .cls-9, .cls-16 {
        font-family: AntarcticanMono-Medium, 'Antarctican Mono';
      }

      .cls-42 {
        stroke-dasharray: 0 0 10.95 10.95;
      }

      .cls-42, .cls-43, .cls-44 {
        stroke-width: 2px;
      }

      .cls-42, .cls-44 {
        stroke: #be1e2d;
      }

      .cls-23, .cls-24 {
        font-family: HelveticaNeue-MediumItalic, 'Helvetica Neue';
      }

      .cls-10, .cls-55 {
        letter-spacing: -.03em;
      }

      .cls-11, .cls-25, .cls-26, .cls-14, .cls-59 {
        font-size: 20px;
      }

      .cls-60 {
        letter-spacing: 0em;
      }

      .cls-45, .cls-46 {
        stroke-width: 4px;
      }

      .cls-30 {
        fill: #f15a29;
      }

      .cls-31 {
        fill: #27aae1;
      }

      .cls-16 {
        font-size: 26px;
      }

      .cls-35 {
        fill: #be1e2d;
      }

      .cls-47 {
        fill: #bcbec0;
      }

      .cls-48 {
        fill: #f1f2f2;
      }

      .cls-49 {
        fill: #e6e7e8;
      }

      .cls-21 {
        letter-spacing: 0em;
      }
    </style>
  </defs>
  <line class="cls-36" x1="78.05" y1="100.56" x2="444.47" y2="100.56"/>
  <line class="cls-36" x1="133.93" y1="90.82" x2="133.93" y2="110.3"/>
  <line class="cls-36" x1="261.26" y1="90.82" x2="261.26" y2="110.3"/>
  <line class="cls-36" x1="387.65" y1="90.82" x2="387.65" y2="110.3"/>
  <line class="cls-40" x1="78.05" y1="138.09" x2="193" y2="138.09"/>
  <line class="cls-40" x1="78.05" y1="176.74" x2="193" y2="176.74"/>
  <line class="cls-38" x1="78.05" y1="213.51" x2="193" y2="213.51"/>
  <line class="cls-39" x1="77.77" y1="250.29" x2="192.72" y2="250.29"/>
  <line class="cls-37" x1="200.41" y1="138.09" x2="322.47" y2="138.09"/>
  <line class="cls-37" x1="200.41" y1="176.74" x2="322.47" y2="176.74"/>
  <line class="cls-37" x1="200.41" y1="213.51" x2="322.47" y2="213.51"/>
  <line class="cls-37" x1="200.11" y1="250.29" x2="322.17" y2="250.29"/>
  <line class="cls-37" x1="330.12" y1="138.09" x2="444.75" y2="138.09"/>
  <line class="cls-37" x1="330.12" y1="176.74" x2="444.75" y2="176.74"/>
  <line class="cls-37" x1="330.12" y1="213.51" x2="444.75" y2="213.51"/>
  <line class="cls-37" x1="329.83" y1="250.29" x2="444.47" y2="250.29"/>
  <text class="cls-17" transform="translate(122.15 76.85)"><tspan x="0" y="0">g</tspan></text>
  <text class="cls-7" transform="translate(137.22 85.59) scale(.58)"><tspan x="0" y="0">1</tspan></text>
  <text class="cls-17" transform="translate(249.36 76.85)"><tspan x="0" y="0">g</tspan></text>
  <text class="cls-7" transform="translate(264.43 85.59) scale(.58)"><tspan x="0" y="0">2</tspan></text>
  <text class="cls-17" transform="translate(375.87 76.85)"><tspan x="0" y="0">g</tspan></text>
  <text class="cls-7" transform="translate(390.94 85.59) scale(.58)"><tspan x="0" y="0">3</tspan></text>
  <text class="cls-17" transform="translate(27.89 141.83)"><tspan x="0" y="0">h</tspan></text>
  <text class="cls-20" transform="translate(42.49 150.58) scale(.58)"><tspan x="0" y="0">1</tspan></text>
  <text class="cls-17" transform="translate(27.61 181)"><tspan x="0" y="0">h</tspan></text>
  <text class="cls-20" transform="translate(42.2 189.75) scale(.58)"><tspan x="0" y="0">2</tspan></text>
  <text class="cls-17" transform="translate(28.13 219.16)"><tspan x="0" y="0">h</tspan></text>
  <text class="cls-20" transform="translate(42.73 227.9) scale(.58)"><tspan x="0" y="0">3</tspan></text>
  <text class="cls-17" transform="translate(28.33 257.37)"><tspan x="0" y="0">h</tspan></text>
  <text class="cls-20" transform="translate(42.93 266.11) scale(.58)"><tspan x="0" y="0">4</tspan></text>
  <line class="cls-36" x1="71.5" y1="365.24" x2="379.8" y2="365.24"/>
  <line class="cls-36" x1="71.5" y1="397.22" x2="379.8" y2="397.22"/>
  <text class="cls-4" transform="translate(34.86 368.34)"><tspan x="0" y="0">h</tspan></text>
  <text class="cls-15" transform="translate(46.94 375.57) scale(.58)"><tspan x="0" y="0">1</tspan></text>
  <text class="cls-4" transform="translate(34.63 400.74)"><tspan x="0" y="0">h</tspan></text>
  <text class="cls-15" transform="translate(46.7 407.97) scale(.58)"><tspan x="0" y="0">2</tspan></text>
  <circle class="cls-47" cx="101.49" cy="365.24" r="8.74"/>
  <circle class="cls-47" cx="213.95" cy="365.24" r="8.74"/>
  <circle class="cls-47" cx="250.76" cy="365.24" r="8.74"/>
  <circle class="cls-47" cx="355.24" cy="365.24" r="8.74"/>
  <circle class="cls-47" cx="150.94" cy="397.22" r="8.74"/>
  <circle class="cls-47" cx="239.43" cy="397.22" r="8.74"/>
  <circle class="cls-47" cx="288.24" cy="397.22" r="8.74"/>
  <line class="cls-45" x1="71.5" y1="591.56" x2="379.8" y2="591.56"/>
  <text class="cls-51" transform="translate(29.35 595.08)"><tspan x="0" y="0">h</tspan></text>
  <text class="cls-27" transform="translate(41.42 602.32) scale(.58)"><tspan x="0" y="0">1,2</tspan></text>
  <circle class="cls-47" cx="150.94" cy="591.56" r="8.74"/>
  <circle class="cls-47" cx="239.43" cy="591.56" r="8.74"/>
  <circle class="cls-47" cx="288.24" cy="591.56" r="8.74"/>
  <circle class="cls-47" cx="103.81" cy="591.56" r="8.74"/>
  <circle class="cls-47" cx="216.27" cy="591.56" r="8.74"/>
  <circle class="cls-47" cx="253.08" cy="591.56" r="8.74"/>
  <circle class="cls-47" cx="357.56" cy="591.56" r="8.74"/>
  <g>
    <line class="cls-43" x1="222.2" y1="524.17" x2="222.2" y2="555.68"/>
    <path class="cls-6" d="M222.2,567.75c-2.11-5.68-5.7-12.73-9.51-17.09l9.51,3.44,9.51-3.44c-3.81,4.37-7.4,11.42-9.51,17.09Z"/>
  </g>
  <text class="cls-59" transform="translate(94.14 454.92)"><tspan class="cls-6"><tspan class="cls-56" x="0" y="0">Me</tspan><tspan class="cls-55" x="28.16" y="0">r</tspan><tspan class="cls-56" x="34.26" y="0">ge the </tspan><tspan class="cls-52" x="95.76" y="0">de novo</tspan><tspan class="cls-56" x="167.62" y="0" xml:space="preserve"> mutations </tspan></tspan><tspan class="cls-18"><tspan x="-12.86" y="23.27">(DNMs) observed on haplotypes </tspan></tspan><tspan class="cls-18" x="-8.71" y="46.54">with the </tspan><tspan class="cls-29" x="67.59" y="46.54">orange genotype</tspan><tspan class="cls-30" x="224.32" y="46.54"> </tspan><tspan class="cls-18" x="229.88" y="46.54">at </tspan><tspan class="cls-22" x="252.48" y="46.54">g</tspan></text>
  <text class="cls-11" transform="translate(358.1 508.13) scale(.58)"><tspan x="0" y="0">1</tspan></text>
  <text class="cls-11" transform="translate(364.59 501.47)"><tspan x="0" y="0"> </tspan></text>
  <g>
    <line class="cls-43" x1="222.45" y1="697.09" x2="222.45" y2="728.6"/>
    <path class="cls-6" d="M222.45,740.67c-2.11-5.68-5.7-12.73-9.51-17.09l9.51,3.44,9.51-3.44c-3.81,4.37-7.4,11.42-9.51,17.09Z"/>
  </g>
  <text class="cls-59" transform="translate(82.49 649)"><tspan class="cls-18"><tspan x="0" y="0">Compute the agg</tspan><tspan class="cls-57" x="155.97" y="0">r</tspan><tspan x="162.28" y="0">egate mutation </tspan></tspan><tspan class="cls-18" x="-20.42" y="23.27">spectrum of the me</tspan><tspan class="cls-10" x="154.09" y="23.27">r</tspan><tspan class="cls-18" x="160.19" y="23.27">ged DNMs on </tspan><tspan class="cls-54" x="289.49" y="23.27">h</tspan></text>
  <text class="cls-25" transform="translate(383.1 678.93) scale(.58)"><tspan x="0" y="0">1,2</tspan></text>
  <text class="cls-16" transform="translate(67.21 787.56)"><tspan x="0" y="0">&lt; 2, 1, 1, 0, 1, 1 &gt;</tspan></text>
  <text class="cls-9" transform="translate(88.25 831.74)"><tspan x="0" y="0">C&gt;T, C&gt;A, C&gt;G, A&gt;T, A&gt;C, A&gt;G</tspan></text>
  <line class="cls-36" x1="500.87" y1="366.74" x2="809.16" y2="366.74"/>
  <line class="cls-36" x1="500.11" y1="397.17" x2="808.4" y2="397.17"/>
  <text class="cls-4" transform="translate(464.43 371.41)"><tspan x="0" y="0">h</tspan></text>
  <text class="cls-15" transform="translate(476.5 378.65) scale(.58)"><tspan x="0" y="0">3</tspan></text>
  <text class="cls-4" transform="translate(464.59 403.02)"><tspan x="0" y="0">h</tspan></text>
  <text class="cls-15" transform="translate(476.67 410.26) scale(.58)"><tspan x="0" y="0">4</tspan></text>
  <circle class="cls-47" cx="550.65" cy="366.74" r="8.74"/>
  <circle class="cls-47" cx="621.31" cy="366.74" r="8.74"/>
  <circle class="cls-47" cx="761.89" cy="397.17" r="8.74"/>
  <circle class="cls-47" cx="799.66" cy="397.17" r="8.74"/>
  <circle class="cls-47" cx="597.79" cy="397.17" r="8.74"/>
  <circle class="cls-47" cx="513.38" cy="397.17" r="8.74"/>
  <line class="cls-46" x1="502.31" y1="591.56" x2="810.6" y2="591.56"/>
  <g>
    <line class="cls-43" x1="641.8" y1="524.86" x2="641.8" y2="556.37"/>
    <path class="cls-6" d="M641.8,568.44c-2.11-5.68-5.7-12.73-9.51-17.09l9.51,3.44,9.51-3.44c-3.81,4.37-7.4,11.42-9.51,17.09Z"/>
  </g>
  <text class="cls-59" transform="translate(513.74 457.68)"><tspan class="cls-6"><tspan class="cls-56" x="0" y="0">Me</tspan><tspan class="cls-55" x="28.16" y="0">r</tspan><tspan class="cls-56" x="34.26" y="0">ge the </tspan><tspan class="cls-52" x="95.76" y="0">de novo</tspan><tspan class="cls-56" x="167.62" y="0" xml:space="preserve"> mutations </tspan></tspan><tspan class="cls-18"><tspan x="-12.86" y="23.27">(DNMs) observed on haplotypes </tspan></tspan><tspan class="cls-18" x="-2.6" y="46.54">with the </tspan><tspan class="cls-32" x="73.7" y="46.54">g</tspan><tspan class="cls-33" x="85.55" y="46.54">r</tspan><tspan class="cls-32" x="92.24" y="46.54">een genotype</tspan><tspan class="cls-31" x="218.21" y="46.54"> </tspan><tspan class="cls-18" x="223.77" y="46.54">at </tspan><tspan class="cls-22" x="246.37" y="46.54">g</tspan></text>
  <text class="cls-11" transform="translate(771.59 510.88) scale(.58)"><tspan x="0" y="0">1</tspan></text>
  <text class="cls-11" transform="translate(778.08 504.22)"><tspan x="0" y="0"> </tspan></text>
  <g>
    <line class="cls-43" x1="642.17" y1="702.9" x2="642.17" y2="734.41"/>
    <path class="cls-6" d="M642.17,746.48c-2.11-5.68-5.7-12.73-9.51-17.09l9.51,3.44,9.51-3.44c-3.81,4.37-7.4,11.42-9.51,17.09Z"/>
  </g>
  <text class="cls-59" transform="translate(499.41 649)"><tspan class="cls-18"><tspan x="0" y="0">Compute the agg</tspan><tspan class="cls-57" x="155.97" y="0">r</tspan><tspan x="162.28" y="0">egate mutation </tspan></tspan><tspan class="cls-18" x="-20.42" y="23.27">spectrum of the me</tspan><tspan class="cls-10" x="154.09" y="23.27">r</tspan><tspan class="cls-18" x="160.19" y="23.27">ged DNMs on </tspan><tspan class="cls-53" x="289.49" y="23.27">h</tspan></text>
  <text class="cls-26" transform="translate(800.02 678.93) scale(.58)"><tspan x="0" y="0">3,4</tspan></text>
  <text class="cls-16" transform="translate(486.45 787.56)"><tspan x="0" y="0">&lt; 1, 0, 2, 0, 0, 2 &gt;</tspan></text>
  <text class="cls-9" transform="translate(507.97 829.48)"><tspan x="0" y="0">C&gt;T, C&gt;A, C&gt;G, A&gt;T, A&gt;C, A&gt;G</tspan></text>
  <text class="cls-50" transform="translate(460.09 600.3)"><tspan x="0" y="0">h</tspan></text>
  <text class="cls-28" transform="translate(472.16 607.53) scale(.58)"><tspan x="0" y="0">3,4</tspan></text>
  <circle class="cls-47" cx="764.16" cy="591.87" r="8.74"/>
  <circle class="cls-47" cx="799.26" cy="591.87" r="8.74"/>
  <circle class="cls-47" cx="600.05" cy="591.87" r="8.74"/>
  <circle class="cls-47" cx="515.64" cy="591.87" r="8.74"/>
  <circle class="cls-47" cx="553.72" cy="591.87" r="8.74"/>
  <circle class="cls-47" cx="624.38" cy="591.87" r="8.74"/>
  <text class="cls-59" transform="translate(245.34 895.52)"><tspan class="cls-6"><tspan class="cls-56" x="0" y="0">Compute the </tspan><tspan class="cls-34" x="122.28" y="0">cosine distance</tspan><tspan class="cls-56" x="267.53" y="0" xml:space="preserve"> between the </tspan></tspan><tspan class="cls-18" x="1.41" y="23.27">agg</tspan><tspan class="cls-13" x="35.11" y="23.27">r</tspan><tspan class="cls-18" x="41.41" y="23.27">egate mutation spectra on </tspan><tspan class="cls-23" x="281.85" y="23.27">h</tspan></text>
  <text class="cls-25" transform="translate(538.67 925.46) scale(.58)"><tspan x="0" y="0">1,2</tspan></text>
  <text class="cls-59" transform="translate(554.88 918.8)"><tspan class="cls-18" x="0" y="0" xml:space="preserve"> and </tspan><tspan class="cls-24" x="44.84" y="0">h</tspan></text>
  <text class="cls-26" transform="translate(611.19 925.46) scale(.58)"><tspan x="0" y="0">3,4</tspan></text>
  <line class="cls-36" x1="1075.6" y1="245.67" x2="1438.97" y2="245.67"/>
  <line class="cls-36" x1="1075.75" y1="245.67" x2="1075.75" y2="57.44"/>
  <text class="cls-8" transform="translate(964.54 147.8)"><tspan x="0" y="0">Distance</tspan></text>
  <circle class="cls-48" cx="1126.15" cy="166.19" r="10.51"/>
  <circle class="cls-48" cx="1256.1" cy="199.63" r="10.51"/>
  <circle class="cls-48" cx="1362.2" cy="57.44" r="10.51"/>
  <text class="cls-5" transform="translate(15.2 65.17)"><tspan x="0" y="0">a</tspan></text>
  <line class="cls-36" x1="1098" y1="297.88" x2="1415.64" y2="297.88"/>
  <line class="cls-36" x1="1146.88" y1="289.4" x2="1146.88" y2="306.36"/>
  <line class="cls-36" x1="1257.69" y1="289.4" x2="1257.69" y2="306.36"/>
  <line class="cls-36" x1="1367.68" y1="289.4" x2="1367.68" y2="306.36"/>
  <line class="cls-40" x1="1098.25" y1="330.54" x2="1198.29" y2="330.54"/>
  <line class="cls-40" x1="1098.25" y1="364.18" x2="1198.29" y2="364.18"/>
  <line class="cls-39" x1="1098.25" y1="396.18" x2="1198.29" y2="396.18"/>
  <line class="cls-39" x1="1098" y1="428.18" x2="1198.04" y2="428.18"/>
  <line class="cls-41" x1="1204.74" y1="330.54" x2="1310.96" y2="330.54"/>
  <line class="cls-39" x1="1204.74" y1="364.18" x2="1310.96" y2="364.18"/>
  <line class="cls-40" x1="1204.74" y1="396.18" x2="1310.96" y2="396.18"/>
  <line class="cls-39" x1="1204.47" y1="428.18" x2="1310.7" y2="428.18"/>
  <line class="cls-39" x1="1317.61" y1="330.54" x2="1417.37" y2="330.54"/>
  <line class="cls-40" x1="1317.61" y1="364.18" x2="1417.37" y2="364.18"/>
  <line class="cls-40" x1="1317.61" y1="396.18" x2="1417.37" y2="396.18"/>
  <line class="cls-39" x1="1317.36" y1="428.18" x2="1417.13" y2="428.18"/>
  <text class="cls-2" transform="translate(1135.54 277.25)"><tspan x="0" y="0">g</tspan></text>
  <text class="cls-3" transform="translate(1150.03 285.65) scale(.58)"><tspan x="0" y="0">1</tspan></text>
  <text class="cls-2" transform="translate(1246.25 277.25)"><tspan x="0" y="0">g</tspan></text>
  <text class="cls-3" transform="translate(1260.74 285.65) scale(.58)"><tspan x="0" y="0">2</tspan></text>
  <text class="cls-2" transform="translate(1356.34 277.25)"><tspan x="0" y="0">g</tspan></text>
  <text class="cls-3" transform="translate(1370.84 285.65) scale(.58)"><tspan x="0" y="0">3</tspan></text>
  <text class="cls-2" transform="translate(1053.54 333.8)"><tspan x="0" y="0">h</tspan></text>
  <text class="cls-21" transform="translate(1067.58 342.21) scale(.58)"><tspan x="0" y="0">1</tspan></text>
  <text class="cls-2" transform="translate(1053.29 367.89)"><tspan x="0" y="0">h</tspan></text>
  <text class="cls-21" transform="translate(1067.33 376.29) scale(.58)"><tspan x="0" y="0">2</tspan></text>
  <text class="cls-2" transform="translate(1053.75 401.09)"><tspan x="0" y="0">h</tspan></text>
  <text class="cls-21" transform="translate(1067.79 409.5) scale(.58)"><tspan x="0" y="0">3</tspan></text>
  <text class="cls-2" transform="translate(1053.92 434.34)"><tspan x="0" y="0">h</tspan></text>
  <text class="cls-21" transform="translate(1067.96 442.75) scale(.58)"><tspan x="0" y="0">4</tspan></text>
  <text class="cls-5" transform="translate(893.85 63.6)"><tspan x="0" y="0">b</tspan></text>
  <line class="cls-36" x1="1087.05" y1="524.3" x2="1433.53" y2="524.3"/>
  <line class="cls-36" x1="1087.05" y1="560.23" x2="1433.53" y2="560.23"/>
  <line class="cls-36" x1="1087.05" y1="594.42" x2="1433.53" y2="594.42"/>
  <line class="cls-36" x1="1086.19" y1="628.61" x2="1432.67" y2="628.61"/>
  <text class="cls-12" transform="translate(1046.93 527.78)"><tspan x="0" y="0">h</tspan></text>
  <text class="cls-1" transform="translate(1059.16 535.11) scale(.58)"><tspan x="0" y="0">3</tspan></text>
  <text class="cls-12" transform="translate(1046.67 564.2)"><tspan x="0" y="0">h</tspan></text>
  <text class="cls-1" transform="translate(1058.9 571.52) scale(.58)"><tspan x="0" y="0">4</tspan></text>
  <text class="cls-12" transform="translate(1047.16 599.67)"><tspan x="0" y="0">h</tspan></text>
  <text class="cls-1" transform="translate(1059.39 607) scale(.58)"><tspan x="0" y="0">1</tspan></text>
  <text class="cls-12" transform="translate(1047.34 635.2)"><tspan x="0" y="0">h</tspan></text>
  <text class="cls-1" transform="translate(1059.57 642.52) scale(.58)"><tspan x="0" y="0">2</tspan></text>
  <circle class="cls-47" cx="1120.75" cy="524.3" r="9.82"/>
  <circle class="cls-47" cx="1247.14" cy="524.3" r="9.82"/>
  <circle class="cls-47" cx="1288.51" cy="524.3" r="9.82"/>
  <circle class="cls-47" cx="1405.93" cy="524.3" r="9.82"/>
  <circle class="cls-47" cx="1176.33" cy="560.23" r="9.82"/>
  <circle class="cls-47" cx="1275.77" cy="560.23" r="9.82"/>
  <circle class="cls-47" cx="1330.63" cy="560.23" r="9.82"/>
  <circle class="cls-47" cx="1143" cy="594.42" r="9.82"/>
  <circle class="cls-47" cx="1222.41" cy="594.42" r="9.82"/>
  <circle class="cls-47" cx="1380.4" cy="628.61" r="9.82"/>
  <circle class="cls-47" cx="1422.85" cy="628.61" r="9.82"/>
  <circle class="cls-47" cx="1195.97" cy="628.61" r="9.82"/>
  <circle class="cls-47" cx="1101.1" cy="628.61" r="9.82"/>
  <g>
    <g>
      <path class="cls-43" d="M1010.67,538.75c0,.37,0,.72-.01,1.06-.04,2-.12,5.34-1.03,9.62-.52,2.48-1.24,5.75-3.13,9.57-3.1,6.25-7.34,9.89-8.26,10.66-3.75,3.13-4.69,2.37-12.07,6.93-5.03,3.11-7.55,4.67-9.78,7.25-4.15,4.81-5.4,10.09-6.15,13.22-1.05,4.43-1.02,7.87-.97,11.53,.06,4.02,.51,9.75,2.3,16.54"/>
      <path class="cls-6" d="M1009.42,526.74c-1.56,5.85-4.48,13.21-7.86,17.91l9.15-4.32,9.79,2.53c-4.2-3.99-8.45-10.67-11.08-16.12Z"/>
    </g>
    <g>
      <path class="cls-43" d="M1011.16,623.38c1.1-5.26,1.3-9.76,1.24-13.07-.04-2-.12-5.34-1.03-9.62-.52-2.48-1.24-5.75-3.13-9.57-3.1-6.25-7.34-9.89-8.26-10.66-3.75-3.13-4.69-2.37-12.07-6.93-5.03-3.11-7.55-4.67-9.78-7.25-4.15-4.81-5.4-10.09-6.15-13.22-1.05-4.43-1.02-7.87-.97-11.53,.02-1.36,.09-2.92,.23-4.64"/>
      <path class="cls-6" d="M973.32,524.99c1.15,5.95,3.55,13.49,6.6,18.42l-8.82-4.94-9.94,1.84c4.47-3.69,9.17-10.06,12.17-15.32Z"/>
    </g>
  </g>
  <text class="cls-5" transform="translate(881.97 513.17)"><tspan x="0" y="0">c</tspan></text>
  <line class="cls-36" x1="1053.38" y1="903.22" x2="1422.47" y2="903.22"/>
  <line class="cls-36" x1="1053.5" y1="903.22" x2="1053.5" y2="700.59"/>
  <rect class="cls-49" x="1117.56" y="806.78" width="16.54" height="95.66"/>
  <rect class="cls-49" x="1174.83" y="736.56" width="16.54" height="165.87"/>
  <rect class="cls-49" x="1202.07" y="719.98" width="16.54" height="182.46"/>
  <rect class="cls-49" x="1230" y="750.82" width="16.54" height="151.62"/>
  <rect class="cls-49" x="1258.2" y="780.09" width="16.54" height="122.69"/>
  <rect class="cls-49" x="1286.8" y="808.89" width="16.54" height="94.33"/>
  <rect class="cls-49" x="1313.16" y="838.86" width="16.54" height="64.36"/>
  <text class="cls-19" transform="translate(1092.64 937.32)"><tspan x="0" y="0">Maximum distance observed </tspan><tspan x="53.39" y="22.76">in permutation trial</tspan></text>
  <text class="cls-35" transform="translate(1255.96 724.69)"><tspan x="0" y="0">Distance th</tspan><tspan class="cls-58" x="111.25" y="0">r</tspan><tspan class="cls-60" x="118.18" y="0">eshold</tspan><tspan x="17.35" y="29">for significance</tspan></text>
  <rect class="cls-49" x="1146.2" y="766.14" width="16.54" height="136.3"/>
  <rect class="cls-49" x="1339.58" y="862.65" width="16.54" height="40.57"/>
  <rect class="cls-49" x="1366" y="885.74" width="15.76" height="17.48"/>
  <g>
    <line class="cls-44" x1="1347.85" y1="770.74" x2="1347.85" y2="776.74"/>
    <line class="cls-42" x1="1347.85" y1="787.69" x2="1347.85" y2="891.74"/>
    <line class="cls-44" x1="1347.85" y1="897.22" x2="1347.85" y2="903.22"/>
  </g>
  <rect class="cls-49" x="1390.26" y="894.83" width="16.54" height="8.39"/>
  <rect class="cls-49" x="1092.02" y="854.61" width="16.54" height="47.83"/>
  <rect class="cls-49" x="1067.16" y="882.54" width="16.54" height="19.9"/>
  <g>
    <path class="cls-6" d="M944.43,810.82v-1.5h2.35l.46-3.3h-2.24v-1.5h2.44l.64-4.51h1.52l-.64,4.51h2.73l.64-4.51h1.52l-.64,4.51h1.96v1.5h-2.16l-.46,3.3h2v1.5h-2.22l-.64,4.53h-1.52l.64-4.53h-2.73l-.64,4.53h-1.52l.64-4.53h-2.13Zm3.87-1.5h2.73l.46-3.3h-2.73l-.46,3.3Z"/>
    <path class="cls-6" d="M962.82,807.34c.24-.73,.59-1.36,1.06-1.89,.47-.54,1.05-.96,1.74-1.26,.69-.31,1.48-.46,2.38-.46s1.7,.15,2.39,.46c.68,.31,1.26,.73,1.73,1.26,.47,.54,.82,1.17,1.06,1.89,.23,.73,.35,1.51,.35,2.34s-.12,1.61-.35,2.33c-.24,.72-.59,1.35-1.06,1.88s-1.04,.95-1.73,1.25c-.68,.3-1.48,.45-2.39,.45s-1.69-.15-2.38-.45c-.69-.3-1.27-.72-1.74-1.25-.47-.54-.82-1.16-1.06-1.88-.23-.72-.35-1.5-.35-2.33s.12-1.62,.35-2.34Zm1.9,4.18c.18,.54,.44,.98,.76,1.34,.32,.36,.7,.63,1.13,.83,.43,.19,.89,.29,1.38,.29s.94-.1,1.38-.29c.43-.19,.81-.47,1.13-.83,.32-.36,.58-.81,.76-1.34s.28-1.15,.28-1.84-.09-1.3-.28-1.84-.44-.99-.76-1.35c-.32-.37-.7-.64-1.13-.84-.43-.19-.89-.29-1.38-.29s-.94,.1-1.38,.29c-.43,.19-.81,.47-1.13,.84-.32,.37-.58,.82-.76,1.35s-.27,1.15-.27,1.84,.09,1.3,.27,1.84Z"/>
    <path class="cls-6" d="M974.57,805.63v-1.65h1.91v-1.69c0-.92,.27-1.62,.8-2.1,.54-.48,1.32-.71,2.34-.71,.18,0,.38,.01,.6,.04s.43,.07,.61,.13v1.63c-.16-.06-.34-.1-.53-.12-.19-.02-.37-.03-.53-.03-.45,0-.81,.09-1.06,.26-.25,.18-.37,.51-.37,1.01v1.58h2.2v1.65h-2.2v9.72h-1.87v-9.72h-1.91Z"/>
    <path class="cls-6" d="M993.2,803.98v1.65h-2.27v7.06c0,.22,.02,.4,.05,.53,.04,.13,.11,.23,.21,.31,.1,.07,.25,.12,.43,.14,.18,.02,.42,.03,.71,.03h.86v1.65h-1.43c-.48,0-.9-.03-1.24-.1-.34-.07-.62-.19-.84-.36s-.37-.43-.47-.75-.15-.75-.15-1.28v-7.24h-1.94v-1.65h1.94v-3.41h1.87v3.41h2.27Z"/>
    <path class="cls-6" d="M996.97,803.98v2.4h.04c.45-.92,1.01-1.61,1.67-2.05,.66-.44,1.5-.64,2.51-.62v1.98c-.75,0-1.39,.1-1.91,.31-.53,.21-.95,.51-1.28,.9-.32,.4-.56,.88-.7,1.44s-.22,1.21-.22,1.95v5.06h-1.87v-11.37h1.76Z"/>
    <path class="cls-6" d="M1002.71,801.94v-2.29h1.87v2.29h-1.87Zm1.87,2.05v11.37h-1.87v-11.37h1.87Z"/>
    <path class="cls-6" d="M1017.56,815.31c-.32,.19-.77,.29-1.34,.29-.48,0-.87-.14-1.15-.41s-.43-.71-.43-1.33c-.51,.62-1.11,1.06-1.79,1.33-.68,.27-1.42,.41-2.21,.41-.51,0-1-.06-1.46-.18s-.86-.3-1.2-.55c-.34-.25-.6-.58-.8-.98s-.3-.89-.3-1.46c0-.65,.11-1.17,.33-1.58,.22-.41,.51-.74,.87-1s.77-.45,1.23-.58,.94-.24,1.42-.33c.51-.1,1-.18,1.46-.23,.46-.05,.87-.12,1.22-.22,.35-.1,.63-.23,.84-.42,.21-.18,.31-.45,.31-.8,0-.41-.08-.74-.23-.99-.15-.25-.35-.44-.59-.57-.24-.13-.51-.22-.81-.26s-.6-.07-.89-.07c-.79,0-1.45,.15-1.98,.45s-.81,.87-.86,1.71h-1.87c.03-.7,.18-1.3,.44-1.78,.26-.48,.62-.88,1.06-1.18,.44-.3,.94-.52,1.51-.65,.56-.13,1.17-.2,1.81-.2,.51,0,1.02,.04,1.53,.11s.96,.22,1.38,.45c.41,.23,.74,.54,.99,.96,.25,.41,.37,.94,.37,1.6v5.84c0,.44,.03,.76,.08,.97,.05,.2,.22,.31,.52,.31,.16,0,.35-.03,.57-.09v1.45Zm-3.04-5.83c-.24,.18-.54,.3-.92,.38-.38,.08-.78,.15-1.2,.2-.42,.05-.84,.11-1.27,.18-.42,.07-.81,.17-1.14,.32-.34,.15-.61,.35-.83,.62-.21,.27-.32,.64-.32,1.11,0,.31,.06,.57,.19,.78,.12,.21,.29,.38,.48,.51,.2,.13,.43,.23,.69,.29,.26,.06,.54,.09,.84,.09,.62,0,1.14-.08,1.58-.25,.44-.17,.8-.38,1.08-.64,.28-.25,.48-.53,.62-.83,.13-.3,.2-.58,.2-.84v-1.9Z"/>
    <path class="cls-6" d="M1021.28,799.65v15.71h-1.87v-15.71h1.87Z"/>
    <path class="cls-6" d="M1025.61,812.81c.18,.29,.41,.51,.69,.68,.29,.17,.61,.29,.97,.36s.73,.11,1.11,.11c.29,0,.6-.02,.92-.07,.32-.04,.62-.12,.89-.24,.27-.12,.5-.29,.67-.52,.18-.23,.26-.52,.26-.87,0-.48-.18-.85-.55-1.1-.37-.25-.82-.45-1.38-.61-.55-.15-1.15-.29-1.79-.42-.65-.12-1.24-.3-1.79-.53-.55-.23-1.01-.55-1.38-.96-.37-.41-.55-.98-.55-1.72,0-.57,.13-1.06,.38-1.47,.26-.41,.59-.74,.99-1s.86-.45,1.36-.57c.51-.12,1.01-.19,1.51-.19,.65,0,1.24,.05,1.78,.17,.54,.11,1.02,.3,1.44,.57,.42,.27,.75,.64,1,1.1,.25,.46,.4,1.04,.44,1.73h-1.87c-.03-.37-.12-.67-.29-.91-.16-.24-.37-.44-.62-.58-.25-.15-.52-.25-.82-.32-.3-.07-.61-.1-.91-.1-.28,0-.56,.02-.85,.07-.29,.04-.55,.12-.78,.23-.24,.11-.43,.26-.57,.44s-.22,.42-.22,.71c0,.32,.11,.59,.34,.8,.23,.21,.52,.39,.87,.53,.35,.14,.75,.26,1.19,.35,.44,.09,.88,.19,1.32,.3,.47,.1,.93,.23,1.38,.37s.84,.34,1.19,.58c.34,.24,.62,.55,.84,.91,.21,.37,.32,.82,.32,1.36,0,.69-.14,1.26-.43,1.72-.29,.46-.66,.82-1.12,1.1s-.98,.47-1.56,.58c-.58,.11-1.15,.17-1.73,.17-.63,0-1.23-.07-1.8-.2-.57-.13-1.08-.35-1.52-.65-.44-.3-.79-.7-1.06-1.19s-.41-1.09-.44-1.79h1.87c.01,.41,.11,.76,.29,1.04Z"/>
  </g>
  <g>
    <line class="cls-36" x1="484.16" y1="136.15" x2="816.29" y2="136.15"/>
    <circle class="cls-47" cx="516.47" cy="136.15" r="9.42"/>
    <circle class="cls-47" cx="637.62" cy="136.15" r="9.42"/>
    <circle class="cls-47" cx="677.28" cy="136.15" r="9.42"/>
    <circle class="cls-47" cx="789.84" cy="136.15" r="9.42"/>
  </g>
  <g>
    <line class="cls-36" x1="484.41" y1="173.86" x2="816.54" y2="173.86"/>
    <circle class="cls-47" cx="569.99" cy="173.86" r="9.42"/>
    <circle class="cls-47" cx="665.32" cy="173.86" r="9.42"/>
    <circle class="cls-47" cx="717.9" cy="173.86" r="9.42"/>
  </g>
  <g>
    <line class="cls-36" x1="483.94" y1="211.57" x2="816.07" y2="211.57"/>
    <circle class="cls-47" cx="537.58" cy="211.57" r="9.42"/>
    <circle class="cls-47" cx="613.7" cy="211.57" r="9.42"/>
  </g>
  <g>
    <line class="cls-36" x1="482.95" y1="249.29" x2="815.08" y2="249.29"/>
    <circle class="cls-47" cx="764.98" cy="249.29" r="9.42"/>
    <circle class="cls-47" cx="805.66" cy="249.29" r="9.42"/>
    <circle class="cls-47" cx="588.18" cy="249.29" r="9.42"/>
    <circle class="cls-47" cx="497.24" cy="249.29" r="9.42"/>
  </g>
  <circle class="cls-47" cx="560.58" cy="78.19" r="9.42"/>
  <text class="cls-14" transform="translate(599.29 82.84)"><tspan class="cls-52" x="0" y="0">de novo</tspan><tspan class="cls-56" x="71.86" y="0" xml:space="preserve"> mutation </tspan></text>
</svg>